<svg width="48" height="48" viewBox="0 0 48 48" fill="none" xmlns="http://www.w3.org/2000/svg">
<path d="M29.4499 16.3121C32.5499 14.4761 34.1019 13.5581 35.2399 14.2101C36.3799 14.8601 36.3519 16.6501 36.2979 20.2301L36.2839 21.1561C36.2679 22.1741 36.2599 22.6821 36.4499 23.1281C36.6399 23.5761 37.0039 23.9101 37.7359 24.5801L38.3999 25.1901C40.9719 27.5461 42.2599 28.7221 41.9559 30.0461C41.6559 31.3681 39.9659 31.9601 36.5879 33.1421L35.7139 33.4481C34.7539 33.7861 34.2739 33.9541 33.9059 34.2901C33.5379 34.6281 33.3239 35.0961 32.8939 36.0301L32.5019 36.8821C30.9899 40.1741 30.2339 41.8221 28.9099 41.9881C27.5859 42.1541 26.5679 40.7281 24.5339 37.8801L24.0079 37.1441C23.4299 36.3341 23.1419 35.9301 22.7239 35.6901C22.3079 35.4521 21.8099 35.4061 20.8119 35.3161L19.9059 35.2321C16.3999 34.9121 14.6459 34.7521 14.1299 33.5321C13.6119 32.3121 14.6719 30.8381 16.7939 27.8961L17.3439 27.1341C17.9459 26.2981 18.2479 25.8801 18.3579 25.3941C18.4679 24.9101 18.3759 24.4141 18.1899 23.4221L18.0199 22.5201C17.3639 19.0281 17.0359 17.2841 18.0419 16.3641C19.0479 15.4441 20.7199 15.9581 24.0639 16.9861L24.9299 17.2541C25.8799 17.5461 26.3559 17.6921 26.8399 17.6301C27.3259 17.5701 27.7659 17.3101 28.6479 16.7881L29.4499 16.3121Z" fill="#1D6EE2"/>
<path opacity="0.3" fill-rule="evenodd" clip-rule="evenodd" d="M17.9401 3.94002C18.2214 3.65912 18.6026 3.50134 19.0001 3.50134C19.3976 3.50134 19.7789 3.65912 20.0601 3.94002L24.0601 7.94002C24.3251 8.22437 24.4694 8.60047 24.4625 8.98907C24.4556 9.37767 24.2982 9.74844 24.0234 10.0233C23.7486 10.2981 23.3778 10.4555 22.9892 10.4624C22.6006 10.4692 22.2245 10.325 21.9401 10.06L17.9401 6.06002C17.6592 5.77877 17.5015 5.39752 17.5015 5.00002C17.5015 4.60252 17.6592 4.22127 17.9401 3.94002ZM6.94015 6.94002C7.2214 6.65912 7.60264 6.50134 8.00014 6.50134C8.39765 6.50134 8.77889 6.65912 9.06015 6.94002L14.0601 11.94C14.3251 12.2244 14.4694 12.6005 14.4625 12.9891C14.4556 13.3777 14.2982 13.7484 14.0234 14.0233C13.7486 14.2981 13.3778 14.4555 12.9892 14.4624C12.6006 14.4692 12.2245 14.325 11.9401 14.06L6.94015 9.06002C6.65924 8.77877 6.50146 8.39752 6.50146 8.00002C6.50146 7.60252 6.65924 7.22127 6.94015 6.94002ZM24.9401 10.94C25.2214 10.6591 25.6026 10.5013 26.0001 10.5013C26.3976 10.5013 26.7789 10.6591 27.0601 10.94L28.0601 11.94C28.3251 12.2244 28.4694 12.6005 28.4625 12.9891C28.4556 13.3777 28.2982 13.7484 28.0234 14.0233C27.7486 14.2981 27.3778 14.4555 26.9892 14.4624C26.6006 14.4692 26.2245 14.325 25.9401 14.06L24.9401 13.06C24.6592 12.7788 24.5015 12.3975 24.5015 12C24.5015 11.6025 24.6592 11.2213 24.9401 10.94ZM2.94015 14.94C3.2214 14.6591 3.60264 14.5013 4.00014 14.5013C4.39765 14.5013 4.77889 14.6591 5.06014 14.94L6.06014 15.94C6.3251 16.2244 6.46935 16.6005 6.46249 16.9891C6.45564 17.3777 6.29821 17.7484 6.02339 18.0233C5.74856 18.2981 5.37779 18.4555 4.98919 18.4624C4.60059 18.4692 4.22449 18.325 3.94015 18.06L2.94015 17.06C2.65924 16.7788 2.50146 16.3975 2.50146 16C2.50146 15.6025 2.65924 15.2213 2.94015 14.94ZM7.94015 19.94C8.2214 19.6591 8.60264 19.5013 9.00014 19.5013C9.39765 19.5013 9.77889 19.6591 10.0601 19.94L13.0601 22.94C13.2075 23.0773 13.3257 23.2429 13.4077 23.4269C13.4897 23.6109 13.5338 23.8096 13.5373 24.011C13.5409 24.2124 13.5038 24.4124 13.4284 24.5992C13.3529 24.786 13.2407 24.9557 13.0982 25.0981C12.9558 25.2405 12.7861 25.3528 12.5993 25.4283C12.4126 25.5037 12.2125 25.5408 12.0111 25.5372C11.8097 25.5337 11.6111 25.4896 11.4271 25.4076C11.2431 25.3256 11.0775 25.2074 10.9401 25.06L7.94015 22.06C7.65924 21.7788 7.50146 21.3975 7.50146 21C7.50146 20.6025 7.65924 20.2213 7.94015 19.94Z" fill="#387DDF"/>
</svg>
