<svg width="48" height="48" viewBox="0 0 48 48" fill="none" xmlns="http://www.w3.org/2000/svg">
<g clip-path="url(#clip0_48_2)">
<path d="M24 0C37.2548 0 48 10.7452 48 24C48 28.5932 46.7087 32.8845 44.4707 36.5322C43.7171 36.1912 42.881 36 42 36C38.6863 36 36 38.6863 36 42C36 42.881 36.1912 43.7171 36.5322 44.4707C32.8845 46.7087 28.5932 48 24 48C10.7452 48 0 37.2548 0 24C0 10.7452 10.7452 0 24 0Z" fill="black"/>
<path d="M24.1394 24V15.1111C24.1394 14.8164 24.2564 14.5338 24.4648 14.3254C24.6732 14.1171 24.9558 14 25.2505 14H32.2472C32.4741 14 32.6957 14.0696 32.8819 14.1993C33.0682 14.329 33.2103 14.5126 33.2891 14.7255C33.3679 14.9383 33.3796 15.1702 33.3226 15.3899C33.2656 15.6097 33.1428 15.8067 32.9705 15.9544L27.7527 20.4267M24.1394 34L15.9016 25.7622C15.4848 25.3456 15.2506 24.7804 15.2505 24.1911V17.7944C15.2516 17.5752 15.3174 17.3611 15.4397 17.1792C15.5619 16.9972 15.7352 16.8553 15.9378 16.7714C16.1404 16.6875 16.3632 16.6653 16.5783 16.7075C16.7935 16.7498 16.9914 16.8546 17.1472 17.0089L33.0283 32.8989" stroke="white" stroke-linecap="round" stroke-linejoin="round"/>
<path d="M24.3772 14.4232L33.7261 31.0521C33.8451 31.2639 33.8913 31.5089 33.8578 31.7495C33.8243 31.9901 33.7129 32.2131 33.5406 32.3843L32.2428 33.6766C32.0344 33.8839 31.7523 34.0001 31.4583 33.9999H17.8628C17.6104 34 17.3655 33.9142 17.1683 33.7566L14.4172 31.5554C14.2369 31.4113 14.106 31.2145 14.0426 30.9925C13.9793 30.7704 13.9867 30.5342 14.0638 30.3166C14.1409 30.099 14.2839 29.9108 14.4729 29.7781C14.6618 29.6455 14.8875 29.5751 15.1183 29.5766L19.7461 29.6066" stroke="white" stroke-linecap="round" stroke-linejoin="round"/>
<rect x="37" y="37" width="10" height="10" rx="5" fill="#EFEFEF"/>
<path d="M42.9085 40.7187C43.4251 40.4127 43.6838 40.2597 43.8735 40.3684C44.0635 40.4767 44.0588 40.7751 44.0498 41.3717L44.0475 41.5261C44.0448 41.6957 44.0435 41.7804 44.0751 41.8547C44.1068 41.9294 44.1675 41.9851 44.2895 42.0967L44.4001 42.1984C44.8288 42.5911 45.0435 42.7871 44.9928 43.0077C44.9428 43.2281 44.6611 43.3267 44.0981 43.5237L43.9525 43.5747C43.7925 43.6311 43.7125 43.6591 43.6511 43.7151C43.5898 43.7714 43.5541 43.8494 43.4825 44.0051L43.4171 44.1471C43.1651 44.6957 43.0391 44.9704 42.8185 44.9981C42.5978 45.0257 42.4281 44.7881 42.0891 44.3134L42.0015 44.1907C41.9051 44.0557 41.8571 43.9884 41.7875 43.9484C41.7181 43.9087 41.6351 43.9011 41.4688 43.8861L41.3178 43.8721C40.7335 43.8187 40.4411 43.7921 40.3551 43.5887C40.2688 43.3854 40.4455 43.1397 40.7991 42.6494L40.8908 42.5224C40.9911 42.3831 41.0415 42.3134 41.0598 42.2324C41.0781 42.1517 41.0628 42.0691 41.0318 41.9037L41.0035 41.7534C40.8941 41.1714 40.8395 40.8807 41.0071 40.7274C41.1748 40.5741 41.4535 40.6597 42.0108 40.8311L42.1551 40.8757C42.3135 40.9244 42.3928 40.9487 42.4735 40.9384C42.5545 40.9284 42.6278 40.8851 42.7748 40.7981L42.9085 40.7187Z" fill="#1D6EE2"/>
<path opacity="0.3" fill-rule="evenodd" clip-rule="evenodd" d="M40.9901 38.6566C41.037 38.6098 41.1005 38.5835 41.1668 38.5835C41.233 38.5835 41.2966 38.6098 41.3434 38.6566L42.0101 39.3233C42.0543 39.3707 42.0783 39.4333 42.0772 39.4981C42.076 39.5629 42.0498 39.6247 42.004 39.6705C41.9582 39.7163 41.8964 39.7425 41.8316 39.7437C41.7668 39.7448 41.7042 39.7208 41.6568 39.6766L40.9901 39.0099C40.9433 38.9631 40.917 38.8995 40.917 38.8333C40.917 38.767 40.9433 38.7035 40.9901 38.6566ZM39.1568 39.1566C39.2036 39.1098 39.2672 39.0835 39.3334 39.0835C39.3997 39.0835 39.4632 39.1098 39.5101 39.1566L40.3434 39.9899C40.3876 40.0373 40.4116 40.1 40.4105 40.1648C40.4094 40.2296 40.3831 40.2913 40.3373 40.3372C40.2915 40.383 40.2297 40.4092 40.1649 40.4103C40.1002 40.4115 40.0375 40.3874 39.9901 40.3433L39.1568 39.5099C39.11 39.4631 39.0837 39.3995 39.0837 39.3333C39.0837 39.267 39.11 39.2035 39.1568 39.1566ZM42.1568 39.8233C42.2036 39.7765 42.2672 39.7502 42.3334 39.7502C42.3997 39.7502 42.4632 39.7765 42.5101 39.8233L42.6768 39.9899C42.7209 40.0373 42.745 40.1 42.7438 40.1648C42.7427 40.2296 42.7165 40.2913 42.6706 40.3372C42.6248 40.383 42.563 40.4092 42.4983 40.4103C42.4335 40.4115 42.3708 40.3874 42.3234 40.3433L42.1568 40.1766C42.11 40.1297 42.0837 40.0662 42.0837 39.9999C42.0837 39.9337 42.11 39.8702 42.1568 39.8233ZM38.4901 40.4899C38.537 40.4431 38.6005 40.4168 38.6668 40.4168C38.733 40.4168 38.7966 40.4431 38.8434 40.4899L39.0101 40.6566C39.0543 40.704 39.0783 40.7667 39.0772 40.8315C39.076 40.8962 39.0498 40.958 39.004 41.0038C38.9582 41.0496 38.8964 41.0759 38.8316 41.077C38.7668 41.0781 38.7042 41.0541 38.6568 41.0099L38.4901 40.8433C38.4433 40.7964 38.417 40.7329 38.417 40.6666C38.417 40.6004 38.4433 40.5368 38.4901 40.4899ZM39.3234 41.3233C39.3703 41.2765 39.4339 41.2502 39.5001 41.2502C39.5664 41.2502 39.6299 41.2765 39.6768 41.3233L40.1768 41.8233C40.2013 41.8462 40.221 41.8738 40.2347 41.9044C40.2484 41.9351 40.2557 41.9682 40.2563 42.0018C40.2569 42.0353 40.2507 42.0687 40.2381 42.0998C40.2256 42.1309 40.2069 42.1592 40.1831 42.183C40.1594 42.2067 40.1311 42.2254 40.1 42.238C40.0688 42.2506 40.0355 42.2567 40.0019 42.2561C39.9684 42.2555 39.9353 42.2482 39.9046 42.2345C39.8739 42.2209 39.8463 42.2012 39.8234 42.1766L39.3234 41.6766C39.2766 41.6297 39.2503 41.5662 39.2503 41.4999C39.2503 41.4337 39.2766 41.3702 39.3234 41.3233Z" fill="#387DDF"/>
</g>
<defs>
<clipPath id="clip0_48_2">
<rect width="48" height="48" fill="white"/>
</clipPath>
</defs>
</svg>
